<?xml version="1.0" encoding="UTF-8" standalone="no"?>
<!-- Created with Inkscape (http://www.inkscape.org/) -->

<svg
   xmlns:dc="http://purl.org/dc/elements/1.1/"
   xmlns:cc="http://creativecommons.org/ns#"
   xmlns:rdf="http://www.w3.org/1999/02/22-rdf-syntax-ns#"
   xmlns:svg="http://www.w3.org/2000/svg"
   xmlns="http://www.w3.org/2000/svg"
   xmlns:inkscape="http://www.inkscape.org/namespaces/inkscape"
   version="1.1"
   width="564.02502"
   height="178.10001"
   id="svg2"
   xml:space="preserve"><metadata
     id="metadata8"><rdf:RDF><cc:Work
         rdf:about=""><dc:format>image/svg+xml</dc:format><dc:type
           rdf:resource="http://purl.org/dc/dcmitype/StillImage" /></cc:Work></rdf:RDF></metadata><defs
     id="defs6"><clipPath
       id="clipPath18"><path
         d="m 0,0 4512,0 0,1424.82 -4512,0 L 0,0 z"
         inkscape:connector-curvature="0"
         id="path20" /></clipPath><clipPath
       id="clipPath72"><path
         d="m 1791.82,1407.62 -31.95,-99.55 c 79.52,-30.1 136.17,-106.75 136.17,-196.84 0,-73.69 -37.92,-138.457 -95.24,-176.093 l 49.66,-86.504 c 89.67,54.5 149.57,153.117 149.57,265.697 0,135.64 -87,250.92 -208.21,293.29 z"
         inkscape:connector-curvature="0"
         id="path74" /></clipPath><linearGradient
       x1="0"
       y1="0"
       x2="1"
       y2="0"
       id="linearGradient76"
       gradientUnits="userSpaceOnUse"
       gradientTransform="matrix(-0.617114,-53.0719,-53.0719,0.617114,188.067,127.226)"
       spreadMethod="pad"><stop
         id="stop78"
         style="stop-color:#40bb6a;stop-opacity:1"
         offset="0" /><stop
         id="stop80"
         style="stop-color:#0094ce;stop-opacity:1"
         offset="0.71658897" /><stop
         id="stop82"
         style="stop-color:#0094ce;stop-opacity:1"
         offset="1" /></linearGradient><clipPath
       id="clipPath90"><path
         d="m 1474.78,1111.23 c 0,98.07 67.1,180.23 157.83,203.7 l -22.61,99.83 c -133.15,-35.06 -231.38,-156.27 -231.38,-300.43 0,-28.61 4.05,-56.24 11.31,-82.57 l 91.44,28.1 c -4.15,16.46 -6.59,33.62 -6.59,51.37 z"
         inkscape:connector-curvature="0"
         id="path92" /></clipPath><linearGradient
       x1="0"
       y1="0"
       x2="1"
       y2="0"
       id="linearGradient94"
       gradientUnits="userSpaceOnUse"
       gradientTransform="matrix(25.3989,0,0,-25.3989,137.862,122.326)"
       spreadMethod="pad"><stop
         id="stop96"
         style="stop-color:#2f5ea0;stop-opacity:1"
         offset="0" /><stop
         id="stop98"
         style="stop-color:#37ab9c;stop-opacity:1"
         offset="0.71658897" /><stop
         id="stop100"
         style="stop-color:#37ab9c;stop-opacity:1"
         offset="1" /></linearGradient><clipPath
       id="clipPath108"><path
         d="m 1685.42,900.605 c -92.08,0 -170.17,59.196 -198.79,141.515 l -91.22,-28.03 c 8.33,-24.41 19.46,-47.531 33.26,-68.766 l -89.97,-210.328 222.86,96.137 c 38.98,-17.621 82.2,-27.516 127.74,-27.516 52.41,0 101.74,13.028 145.03,35.926 l -49.39,86.059 c -29.64,-15.914 -63.52,-24.997 -99.52,-24.997 z"
         inkscape:connector-curvature="0"
         id="path110" /></clipPath><linearGradient
       x1="0"
       y1="0"
       x2="1"
       y2="0"
       id="linearGradient112"
       gradientUnits="userSpaceOnUse"
       gradientTransform="matrix(49.563,0,0,-49.563,133.87,88.856)"
       spreadMethod="pad"><stop
         id="stop114"
         style="stop-color:#3871c1;stop-opacity:1"
         offset="0" /><stop
         id="stop116"
         style="stop-color:#00adef;stop-opacity:1"
         offset="0.71658897" /><stop
         id="stop118"
         style="stop-color:#00adef;stop-opacity:1"
         offset="1" /></linearGradient><clipPath
       id="clipPath126"><path
         d="m 0,0 0,1425 4512,0 L 4512,0 0,0 z"
         inkscape:connector-curvature="0"
         id="path128" /></clipPath></defs><g
     transform="matrix(1.25,0,0,-1.25,0,178.1)"
     id="g10"><g
       transform="scale(0.1,0.1)"
       id="g12"><g
         id="g14"><g
           clip-path="url(#clipPath18)"
           id="g16"><path
             d="m 4444.86,287.27 -11.8,0 0,6.332 31.29,0 0,-6.332 -11.93,0 0,-35.09 -7.56,0 0,35.09"
             inkscape:connector-curvature="0"
             id="path22"
             style="fill:#a7a5a6;fill-opacity:1;fill-rule:nonzero;stroke:none" /><path
             d="m 4504.01,269.078 c -0.26,5.344 -0.56,11.801 -0.49,17.402 l -0.2,0 c -1.34,-5.05 -3.06,-10.628 -4.91,-15.871 l -6.09,-17.929 -5.77,0 -5.53,17.699 c -1.61,5.269 -3.08,10.922 -4.17,16.101 l -0.14,0 c -0.17,-5.41 -0.43,-12 -0.72,-17.652 l -0.92,-16.648 -7.08,0 2.77,41.422 9.95,0 5.4,-16.661 c 1.48,-4.839 2.77,-9.761 3.82,-14.371 l 0.18,0 c 1.12,4.481 2.52,9.578 4.11,14.43 l 5.74,16.602 9.83,0 2.38,-41.422 -7.37,0 -0.79,16.898"
             inkscape:connector-curvature="0"
             id="path24"
             style="fill:#a7a5a6;fill-opacity:1;fill-rule:nonzero;stroke:none" /><path
             d="m 2716.55,466.848 c 0,56.863 -46.48,103.34 -103.37,103.34 -56.9,0 -103.37,-46.477 -103.37,-103.34 0,-56.899 46.47,-103.399 103.37,-103.399 56.89,0 103.37,46.5 103.37,103.399 z m 61.72,0 0,-165.086 -61.72,0 0,36.039 c -28.84,-22.43 -64.11,-36.039 -103.37,-36.039 -91.34,0 -165.06,73.718 -165.06,165.086 0,91.336 73.72,165.027 165.06,165.027 91.36,0 165.09,-73.691 165.09,-165.027"
             inkscape:connector-curvature="0"
             id="path26"
             style="fill:#00adef;fill-opacity:1;fill-rule:nonzero;stroke:none" /><path
             d="m 2944.9,631.875 0,-330.113 -61.72,0 0,268.426 -83.02,0 0,61.687 83.02,0 0,165.113 61.72,0 0,-165.113"
             inkscape:connector-curvature="0"
             id="path28"
             style="fill:#00adef;fill-opacity:1;fill-rule:nonzero;stroke:none" /><path
             d="m 3176.14,631.875 c 91.34,0 165.05,-74.512 165.05,-165.027 l 0,-165.086 -61.69,0 0,165.086 c 0,56.863 -46.47,102.578 -103.36,102.578 -56.9,0 -102.58,-45.715 -102.58,-102.578 l 0,-165.086 -62.5,0 0,495.226 62.5,0 0,-201.949 c 28.04,23.254 64.09,36.836 102.58,36.836"
             inkscape:connector-curvature="0"
             id="path30"
             style="fill:#00adef;fill-opacity:1;fill-rule:nonzero;stroke:none" /><path
             d="m 3657.72,466.848 c 0,56.863 -46.47,103.34 -103.36,103.34 -56.91,0 -103.39,-46.477 -103.39,-103.34 0,-56.899 46.48,-102.598 103.39,-102.598 56.89,0 103.36,45.699 103.36,102.598 z m 61.71,0 c 0,-90.578 -73.72,-165.086 -165.07,-165.086 -91.35,0 -165.08,74.508 -165.08,165.086 0,91.336 73.73,165.027 165.08,165.027 91.35,0 165.07,-73.691 165.07,-165.027"
             inkscape:connector-curvature="0"
             id="path32"
             style="fill:#00adef;fill-opacity:1;fill-rule:nonzero;stroke:none" /><path
             d="m 3829.2,301.762 -61.69,0 0,165.086 c 0,91.336 73.74,165.027 165.07,165.027 91.33,0 165.09,-73.691 165.09,-165.027 l 0,-165.086 -61.72,0 0,165.086 c 0,56.863 -46.47,103.34 -103.37,103.34 -56.9,0 -103.38,-46.477 -103.38,-103.34 l 0,-165.086"
             inkscape:connector-curvature="0"
             id="path34"
             style="fill:#00adef;fill-opacity:1;fill-rule:nonzero;stroke:none" /><path
             d="m 722.117,629.57 c 90.422,0 163.41,-73.769 163.41,-163.418 l 0,-163.422 -61.086,0 0,163.422 c 0,56.321 -46.003,101.555 -102.324,101.555 -56.34,0 -101.582,-45.234 -101.582,-101.555 l 0,-163.422 -61.859,0 0,490.254 61.859,0 0,-199.898 c 27.781,22.98 63.508,36.484 101.582,36.484"
             inkscape:connector-curvature="0"
             id="path36"
             style="fill:#00adef;fill-opacity:1;fill-rule:nonzero;stroke:none" /><path
             d="m 1128.3,190.07 c -107.87,53.149 -182.441,164.211 -182.441,291.934 0,128.535 74.571,239.598 182.441,291.941 l 0,-69.812 c -15.86,-9.524 -30.13,-21.418 -44.39,-35.684 -49.21,-49.172 -76.97,-115.82 -76.97,-186.445 0,-69.785 27.76,-136.445 76.97,-186.414 14.26,-13.512 28.53,-25.391 44.39,-35.699 l 0,-69.821"
             inkscape:connector-curvature="0"
             id="path38"
             style="fill:#bdbcbc;fill-opacity:1;fill-rule:nonzero;stroke:none" /><path
             d="m 1397.36,466.152 c 0,56.321 -45.99,102.317 -102.32,102.317 -56.33,0 -102.35,-45.996 -102.35,-102.317 0,-56.351 46.02,-102.324 102.35,-102.324 56.33,0 102.32,45.973 102.32,102.324 z m 61.08,0 0,-163.422 -61.08,0 0,35.692 c -28.54,-22.231 -63.43,-35.692 -102.32,-35.692 -90.43,0 -163.42,72.981 -163.42,163.422 0,90.45 72.99,163.418 163.42,163.418 90.43,0 163.4,-72.968 163.4,-163.418"
             inkscape:connector-curvature="0"
             id="path40"
             style="fill:#00adef;fill-opacity:1;fill-rule:nonzero;stroke:none" /><path
             d="m 1772.31,466.152 c 0,56.321 -46,101.555 -102.33,101.555 -56.32,0 -102.34,-45.234 -102.34,-101.555 0,-56.351 46.02,-102.324 102.34,-102.324 56.33,0 102.33,45.973 102.33,102.324 z m 61.09,0 c 0,-90.441 -72.99,-163.422 -163.42,-163.422 -38.87,0 -74.56,13.461 -102.34,35.692 l 0,-199.113 -61.08,0 0,326.843 c 0,89.649 72.98,163.418 163.42,163.418 90.43,0 163.42,-73.769 163.42,-163.418"
             inkscape:connector-curvature="0"
             id="path42"
             style="fill:#00adef;fill-opacity:1;fill-rule:nonzero;stroke:none" /><path
             d="m 2136.74,466.152 c 0,56.321 -45.98,101.555 -102.33,101.555 -56.29,0 -102.32,-45.234 -102.32,-101.555 0,-56.351 46.03,-102.324 102.32,-102.324 56.35,0 102.33,45.973 102.33,102.324 z m 61.1,0 c 0,-90.441 -72.98,-163.422 -163.43,-163.422 -38.87,0 -74.56,13.461 -102.32,35.692 l 0,-199.113 -61.09,0 0,326.843 c 0,89.649 72.97,163.418 163.41,163.418 90.45,0 163.43,-73.769 163.43,-163.418"
             inkscape:connector-curvature="0"
             id="path44"
             style="fill:#00adef;fill-opacity:1;fill-rule:nonzero;stroke:none" /><path
             d="m 2239.24,294 c 49.19,49.988 76.96,116.629 76.96,186.422 0,70.625 -27.77,137.246 -76.96,186.433 -14.26,14.278 -28.56,26.192 -44.42,35.684 l 0,69.844 c 107.9,-52.391 182.46,-163.457 182.46,-291.961 0,-127.703 -74.56,-238.774 -182.46,-291.942 l 0,69.801 c 15.86,10.348 30.16,22.231 44.42,35.719"
             inkscape:connector-curvature="0"
             id="path46"
             style="fill:#bdbcbc;fill-opacity:1;fill-rule:nonzero;stroke:none" /><path
             d="m 3495.85,101.141 c 4.46,6.929 7.76,14.961 9.88,24.121 2.11,9.148 3.18,19.367 3.18,30.648 0,8.262 -0.9,16.692 -2.67,25.289 -1.81,8.602 -4.59,16.071 -8.38,22.442 -3.78,6.461 -8.77,11.711 -14.91,15.738 -6.13,4.012 -13.51,6.012 -22.12,6.012 -8.25,0 -15.27,-1.821 -21.07,-5.442 -5.82,-3.621 -10.84,-7.969 -15.1,-12.98 l 0,-97.617 c 1.04,-3 2.69,-6.141 4.97,-9.3832 2.28,-3.2383 4.82,-6.0079 7.6,-8.3672 3.48,-2.793 7.2,-5.0508 11.23,-6.7813 4.04,-1.7305 8.93,-2.6094 14.75,-2.6094 6.23,0 12.26,1.668 18.07,4.961 5.8,3.289 10.66,7.957 14.57,13.9691 z m 27.3,118.738 c 6.59,-7.82 11.69,-16.891 15.31,-27.219 3.63,-10.34 5.44,-22.129 5.44,-35.422 0,-13.058 -2.16,-24.976 -6.51,-35.75 -4.38,-10.777 -10.11,-19.968 -17.25,-27.5271 -7.48,-7.7226 -15.8,-13.6406 -24.96,-17.7695 C 3486.02,72.0586 3476.31,70 3466.03,70 c -9.91,0 -18.06,1.1289 -24.41,3.3398 -6.38,2.25 -11.57,4.8594 -15.6,7.8711 l -1.36,0 0,-49.6797 c 0,-4.0312 0.81,-7.3906 2.38,-10.0703 1.55,-2.6797 3.94,-4.6406 7.18,-5.8711 2.68,-1.0195 6.52,-1.9804 11.48,-2.9296 4.98,-0.961 9.08,-1.4883 12.3,-1.6016 L 3458,0 l -92.26,0 0,11.0586 c 3.47,0.2226 6.82,0.4922 10.04,0.8398 3.24,0.3399 6.15,0.8907 8.71,1.6719 3.36,1.1211 5.7,3.0586 7.02,5.8516 1.36,2.7969 2.03,6.0976 2.03,9.8867 l 0,175.6604 c 0,3.351 -0.85,6.582 -2.51,9.711 -1.66,3.109 -3.86,5.648 -6.54,7.539 -2.01,1.332 -4.79,2.371 -8.37,3.101 -3.56,0.731 -7.05,1.18 -10.38,1.41 l 0,11.071 56.25,3.679 2.37,-2.019 0,-18.582 1.34,-0.328 c 5.79,6.687 13,12.269 21.59,16.73 8.6,4.469 17.13,6.707 25.63,6.707 10.26,0 19.66,-2.168 28.21,-6.527 8.52,-4.352 15.87,-10.223 22.02,-17.582"
             inkscape:connector-curvature="0"
             id="path48"
             style="fill:#a7a5a6;fill-opacity:1;fill-rule:nonzero;stroke:none" /><path
             d="m 3694.62,218.191 c 0,-5.679 -1.39,-10.742 -4.17,-15.14 -2.82,-4.422 -7.11,-6.621 -12.92,-6.621 -6.26,0 -11.02,1.621 -14.3,4.859 -3.31,3.223 -4.95,6.813 -4.95,10.691 0,2.489 0.2,4.719 0.59,6.719 0.38,2 0.76,4.031 1.08,6.031 -5.25,0 -11.38,-2.109 -18.41,-6.371 -7.04,-4.23 -13,-10.257 -17.94,-18.078 l 0,-96.109 c 0,-3.922 0.79,-7.1017 2.27,-9.5509 1.51,-2.4492 3.88,-4.293 7.13,-5.5313 2.79,-1.1093 6.39,-1.9414 10.79,-2.5117 4.43,-0.5586 8.26,-0.9492 11.49,-1.1797 l 0,-11.0468 -87.09,0 0,11.0468 c 2.58,0.2305 5.21,0.4532 7.95,0.6719 2.73,0.2305 5.11,0.6797 7.13,1.3399 3.11,1.0117 5.46,2.7695 6.94,5.2812 1.5,2.5078 2.27,5.7578 2.27,9.7576 l 0,101.891 c 0,3.441 -0.81,6.859 -2.43,10.18 -1.64,3.359 -3.89,6.031 -6.78,8.039 -2.13,1.332 -4.63,2.312 -7.52,2.921 -2.92,0.598 -6.06,1.02 -9.41,1.25 l 0,11.071 54.93,3.679 2.33,-2.359 0,-23.269 0.85,0 c 6.93,9.046 14.65,15.898 23.11,20.609 8.49,4.68 16.24,7.019 23.27,7.019 7.05,0 12.78,-2.289 17.18,-6.871 4.4,-4.578 6.61,-10.711 6.61,-18.418"
             inkscape:connector-curvature="0"
             id="path50"
             style="fill:#a7a5a6;fill-opacity:1;fill-rule:nonzero;stroke:none" /><path
             d="m 3835.12,158.25 c 0,8.371 -0.84,17.23 -2.53,26.551 -1.67,9.308 -4.18,17.199 -7.53,23.679 -3.58,6.918 -8.28,12.481 -14.1,16.68 -5.82,4.168 -12.92,6.289 -21.33,6.289 -8.59,0 -15.95,-2.148 -22.04,-6.39 -6.09,-4.25 -11.02,-10.039 -14.83,-17.411 -3.59,-6.808 -6.12,-14.558 -7.56,-23.269 -1.46,-8.719 -2.2,-17.129 -2.2,-25.301 0,-10.707 0.88,-20.617 2.63,-29.707 1.72,-9.121 4.49,-17.223 8.28,-24.383 3.81,-7.1286 8.59,-12.738 14.36,-16.8161 5.76,-4.0703 12.88,-6.1211 21.36,-6.1211 14.01,0 25.07,6.7578 33.25,20.2692 8.14,13.5 12.24,32.16 12.24,55.93 z m 34.66,0.328 c 0,-11.609 -1.85,-23.019 -5.53,-34.238 -3.71,-11.219 -8.95,-20.75 -15.76,-28.5392 -7.72,-8.9297 -16.65,-15.5899 -26.82,-19.9492 -10.18,-4.3633 -21.56,-6.5235 -34.19,-6.5235 -10.52,0 -20.51,1.9727 -30.02,5.9414 -9.5,3.9688 -17.92,9.75 -25.31,17.3516 -7.24,7.4689 -13.05,16.5979 -17.34,27.3669 -4.32,10.774 -6.48,22.852 -6.48,36.242 0,25.79 7.55,46.911 22.57,63.309 15.02,16.41 34.73,24.621 59.09,24.621 23.13,0 42.2,-7.781 57.23,-23.359 15.04,-15.571 22.56,-36.321 22.56,-62.223"
             inkscape:connector-curvature="0"
             id="path52"
             style="fill:#a7a5a6;fill-opacity:1;fill-rule:nonzero;stroke:none" /><path
             d="m 3956.19,306.781 c 0,-6.359 -2.08,-11.922 -6.25,-16.652 -4.21,-4.758 -9.38,-7.117 -15.53,-7.117 -5.68,0 -10.63,2.25 -14.81,6.797 -4.18,4.511 -6.27,9.66 -6.27,15.472 0,6.141 2.09,11.489 6.27,16.071 4.18,4.578 9.13,6.859 14.81,6.859 6.38,0 11.59,-2.152 15.66,-6.43 4.08,-4.32 6.12,-9.312 6.12,-15 z m -2.51,-222.3826 c 0,-12.2773 -1.79,-23.8086 -5.35,-34.5781 C 3944.76,39.0391 3940,30.1484 3934.1,23.1211 3927.73,15.6406 3920.55,9.91016 3912.57,5.94922 3904.59,2 3895.8,0 3886.2,0 c -9.94,0 -17.43,2 -22.45,5.94922 -5.01,3.96094 -7.52,8.62108 -7.52,13.98048 0,4.8008 1.34,9.0312 4.02,12.6484 2.67,3.6211 6.59,5.4414 11.71,5.4414 3.46,0 6.53,-0.7187 9.22,-2.1914 2.68,-1.4297 5.02,-3.3476 7.04,-5.6797 1.78,-2.0078 3.59,-4.5 5.44,-7.4492 1.83,-2.9609 3.61,-5.8398 5.27,-8.6406 8.47,0 14.53,5.1406 18.17,15.4297 3.63,10.2617 5.44,26.7305 5.44,49.4023 l 0,124.2504 c 0,3.558 -0.87,6.988 -2.59,10.289 -1.73,3.289 -4.01,5.949 -6.78,7.949 -1.8,1.242 -6.07,2.473 -12.83,3.68 -6.75,1.222 -11.86,2.011 -15.31,2.351 l 0,10.391 66.31,3.679 2.34,-2.359 0,-154.7226"
             inkscape:connector-curvature="0"
             id="path54"
             style="fill:#a7a5a6;fill-opacity:1;fill-rule:nonzero;stroke:none" /><path
             d="m 4103.37,176.172 c 0,6.226 -0.51,12.906 -1.59,20.027 -1.04,7.129 -2.74,13.082 -5.09,17.86 -2.56,5.121 -6.09,9.293 -10.55,12.531 -4.46,3.23 -10.23,4.859 -17.26,4.859 -11.72,0 -21.45,-4.89 -29.21,-14.621 -7.75,-9.75 -11.98,-23.289 -12.64,-40.656 l 76.34,0 z m 37.02,-62.981 c -6.92,-13.16 -16.18,-23.6519 -27.8,-31.4605 C 4100.99,73.9102 4087.64,70 4072.59,70 c -13.31,0 -24.94,2.3398 -34.93,7.0391 -9.98,4.6914 -18.21,11.039 -24.7,19.082 -6.46,8.0509 -11.3,17.4179 -14.49,28.1409 -3.19,10.718 -4.76,22.047 -4.76,33.988 0,10.719 1.7,21.23 5.11,31.57 3.4,10.328 8.4,19.61 14.98,27.899 6.36,7.902 14.27,14.301 23.69,19.14 9.44,4.871 20.01,7.301 31.74,7.301 12.05,0 22.36,-1.89 30.96,-5.699 8.6,-3.801 15.6,-9 20.97,-15.582 5.11,-6.238 8.94,-13.609 11.45,-22.09 2.51,-8.48 3.78,-17.699 3.78,-27.641 l 0,-11.039 -109.36,0 c 0,-10.847 1.04,-20.718 3.1,-29.539 2.07,-8.84 5.32,-16.621 9.8,-23.332 4.34,-6.5 10.04,-11.6169 17.07,-15.3474 7.03,-3.75 15.41,-5.6523 25.13,-5.6523 9.92,0 18.48,2.3515 25.7,7 7.2,4.6523 14.14,13.0317 20.85,25.1717 l 11.71,-7.219"
             inkscape:connector-curvature="0"
             id="path56"
             style="fill:#a7a5a6;fill-opacity:1;fill-rule:nonzero;stroke:none" /><path
             d="m 4235.85,70 c -23.91,0 -42.59,7.9297 -56.1,23.7695 -13.51,15.8785 -20.27,37.1285 -20.27,63.8005 0,11.621 1.8,22.469 5.45,32.578 3.62,10.102 8.89,19.282 15.83,27.571 6.58,7.902 14.82,14.301 24.77,19.14 9.94,4.871 20.77,7.301 32.48,7.301 16.19,0 29.39,-3.898 39.52,-11.648 10.16,-7.75 15.24,-18.321 15.24,-31.723 0,-5.59 -1.34,-10.527 -4.01,-14.82 -2.67,-4.309 -7.1,-6.457 -13.23,-6.457 -6.6,0 -11.69,1.687 -15.33,5.019 -3.62,3.34 -5.44,7.059 -5.44,11.168 0,5.012 0.68,10.16 2.02,15.449 1.34,5.301 2.11,9.153 2.34,11.602 -1.99,3.449 -4.97,5.762 -8.92,6.922 -3.98,1.156 -8.23,1.777 -12.8,1.777 -5.34,0 -10.45,-1.168 -15.28,-3.449 -4.84,-2.301 -9.55,-6.512 -14.1,-12.648 -4.13,-5.571 -7.46,-13.114 -10.03,-22.614 -2.57,-9.476 -3.84,-20.816 -3.84,-34 0,-20.758 4.6,-37.699 13.79,-50.816 9.19,-13.1017 21.25,-19.6837 36.2,-19.6837 10.81,0 19.87,2.6601 27.18,7.9336 7.28,5.2691 14.07,13.1801 20.31,23.7261 l 10.68,-7.039 C 4294.96,99.6914 4285.24,89.2617 4273.19,81.5508 4261.14,73.8711 4248.68,70 4235.85,70"
             inkscape:connector-curvature="0"
             id="path58"
             style="fill:#a7a5a6;fill-opacity:1;fill-rule:nonzero;stroke:none" /><path
             d="m 4417.18,81.5508 c -7.25,-3 -14.1,-5.5508 -20.57,-7.6211 -6.49,-2.0586 -14.41,-3.0899 -23.78,-3.0899 -13.85,0 -23.59,3.4883 -29.23,10.4688 -5.66,6.9805 -8.46,16.8203 -8.46,29.5504 l 0,111.871 -29.79,0 0,16.071 30.47,0 0,51.398 30.46,0 0,-51.398 47.41,0 0,-16.071 -47.05,0 0,-92.281 c 0,-6.918 0.25,-12.699 0.74,-17.328 0.5,-4.633 1.73,-8.68 3.61,-12.133 1.79,-3.2497 4.47,-5.7068 8.03,-7.3786 3.57,-1.6797 8.37,-2.5196 14.41,-2.5196 2.79,0 6.89,0.2618 12.3,0.7696 5.43,0.5 9.25,1.1406 11.45,1.9101 l 0,-12.2187"
             inkscape:connector-curvature="0"
             id="path60"
             style="fill:#a7a5a6;fill-opacity:1;fill-rule:nonzero;stroke:none" /><path
             d="m 111.859,309.078 c -7.257,-3.008 -14.1207,-5.539 -20.5934,-7.609 -6.4726,-2.078 -14.4023,-3.098 -23.7773,-3.098 -13.8399,0 -23.5821,3.488 -29.2227,10.457 -5.6445,6.981 -8.4492,16.832 -8.4492,29.57 l 0,111.856 -29.8164,0 0,16.074 30.4844,0 0,51.406 30.4726,0 0,-51.406 47.383,0 0,-16.074 -47.047,0 0,-92.274 c 0,-6.91 0.2461,-12.699 0.7539,-17.339 0.5,-4.621 1.707,-8.68 3.5937,-12.121 1.7891,-3.25 4.4727,-5.711 8.0469,-7.372 3.5703,-1.687 8.3672,-2.539 14.3984,-2.539 2.7813,0 6.8907,0.282 12.3011,0.77 5.418,0.5 9.246,1.16 11.472,1.93 l 0,-12.231"
             inkscape:connector-curvature="0"
             id="path62"
             style="fill:#a7a5a6;fill-opacity:1;fill-rule:nonzero;stroke:none" /><path
             d="m 319.219,302.719 -81.227,0 0,11.051 c 2.57,0.218 5.422,0.449 8.551,0.671 3.121,0.231 5.691,0.668 7.699,1.34 3.125,1.008 5.438,2.758 6.953,5.289 1.5,2.5 2.262,5.75 2.262,9.782 l 0,84.91 c 0,11.711 -2.777,20.761 -8.316,27.129 -5.539,6.347 -12.282,9.531 -20.231,9.531 -5.812,0 -11.215,-0.918 -16.195,-2.762 -4.985,-1.828 -9.434,-4.101 -13.344,-6.769 -3.809,-2.801 -6.711,-5.606 -8.726,-8.379 -2.016,-2.793 -3.583,-5.137 -4.696,-7.039 l 0,-94.942 c 0,-3.793 0.754,-6.929 2.266,-9.383 1.5,-2.468 3.812,-4.347 6.941,-5.687 2.449,-1.133 4.996,-1.941 7.617,-2.512 2.622,-0.558 5.497,-0.961 8.629,-1.179 l 0,-11.051 -80.879,0 0,11.051 c 2.547,0.218 5.207,0.48 7.981,0.761 2.766,0.27 5.09,0.688 6.98,1.25 3.11,1.008 5.43,2.778 6.989,5.289 1.547,2.5 2.332,5.782 2.332,9.801 l 0,192.371 c 0,3.801 -0.867,7.59 -2.598,11.399 -1.738,3.808 -4.004,6.648 -6.785,8.543 -2.008,1.437 -5.555,2.48 -10.637,3.097 -5.082,0.625 -9.183,1.035 -12.305,1.258 l 0,10.723 61.114,3.672 2.355,-2.508 0,-115.207 0.672,0 c 3.691,3.691 7.047,6.965 10.067,9.797 3.003,2.851 6.98,5.828 11.902,8.964 4.25,2.665 9.25,4.911 15.015,6.7 5.75,1.777 12.211,2.675 19.375,2.675 14.747,0 26.11,-4.66 34.051,-13.984 7.922,-9.328 11.907,-22.746 11.907,-40.281 l 0,-85.879 c 0,-3.922 0.687,-7.082 2.097,-9.473 1.418,-2.41 3.735,-4.277 7.008,-5.617 2.59,-1.019 4.902,-1.762 6.996,-2.262 2.074,-0.5 4.797,-0.871 8.18,-1.089 l 0,-11.051"
             inkscape:connector-curvature="0"
             id="path64"
             style="fill:#a7a5a6;fill-opacity:1;fill-rule:nonzero;stroke:none" /><path
             d="m 438.105,404.539 c 0,6.211 -0.523,12.91 -1.585,20.031 -1.059,7.121 -2.766,13.078 -5.114,17.844 -2.558,5.137 -6.074,9.305 -10.551,12.547 -4.46,3.215 -10.21,4.836 -17.246,4.836 -11.722,0 -21.464,-4.863 -29.214,-14.621 -7.754,-9.727 -11.973,-23.278 -12.641,-40.637 l 76.351,0 z m 37.012,-62.98 c -6.926,-13.161 -16.187,-23.649 -27.805,-31.469 -11.605,-7.82 -24.941,-11.719 -40.011,-11.719 -13.285,0 -24.93,2.34 -34.922,7.02 -9.992,4.699 -18.215,11.058 -24.691,19.089 -6.481,8.051 -11.305,17.418 -14.497,28.141 -3.175,10.707 -4.769,22.051 -4.769,34 0,10.707 1.707,21.231 5.109,31.559 3.407,10.336 8.403,19.625 14.985,27.886 6.367,7.911 14.265,14.305 23.703,19.161 9.429,4.863 20.008,7.304 31.726,7.304 12.071,0 22.379,-1.906 30.981,-5.715 8.597,-3.789 15.566,-8.984 20.937,-15.574 5.133,-6.25 8.961,-13.625 11.473,-22.09 2.508,-8.492 3.769,-17.691 3.769,-27.652 l 0,-11.031 -109.351,0 c 0,-10.84 1.027,-20.707 3.094,-29.528 2.066,-8.863 5.328,-16.621 9.793,-23.332 4.363,-6.507 10.054,-11.629 17.093,-15.371 7.028,-3.75 15.391,-5.629 25.114,-5.629 9.929,0 18.5,2.352 25.695,6.993 7.215,4.66 14.156,13.046 20.852,25.179 l 11.722,-7.222"
             inkscape:connector-curvature="0"
             id="path66"
             style="fill:#a7a5a6;fill-opacity:1;fill-rule:nonzero;stroke:none" /></g></g><g
         id="g68"><g
           clip-path="url(#clipPath72)"
           id="g70"><path
             d="m 1791.82,1407.62 -31.95,-99.55 c 79.52,-30.1 136.17,-106.75 136.17,-196.84 0,-73.69 -37.92,-138.457 -95.24,-176.093 l 49.66,-86.504 c 89.67,54.5 149.57,153.117 149.57,265.697 0,135.64 -87,250.92 -208.21,293.29"
             inkscape:connector-curvature="0"
             id="path84"
             style="fill:url(#linearGradient76);fill-opacity:1;fill-rule:nonzero;stroke:none" /></g></g><g
         id="g86"><g
           clip-path="url(#clipPath90)"
           id="g88"><path
             d="m 1474.78,1111.23 c 0,98.07 67.1,180.23 157.83,203.7 l -22.61,99.83 c -133.15,-35.06 -231.38,-156.27 -231.38,-300.43 0,-28.61 4.05,-56.24 11.31,-82.57 l 91.44,28.1 c -4.15,16.46 -6.59,33.62 -6.59,51.37"
             inkscape:connector-curvature="0"
             id="path102"
             style="fill:url(#linearGradient94);fill-opacity:1;fill-rule:nonzero;stroke:none" /></g></g><g
         id="g104"><g
           clip-path="url(#clipPath108)"
           id="g106"><path
             d="m 1685.42,900.605 c -92.08,0 -170.17,59.196 -198.79,141.515 l -91.22,-28.03 c 8.33,-24.41 19.46,-47.531 33.26,-68.766 l -89.97,-210.328 222.86,96.137 c 38.98,-17.621 82.2,-27.516 127.74,-27.516 52.41,0 101.74,13.028 145.03,35.926 l -49.39,86.059 c -29.64,-15.914 -63.52,-24.997 -99.52,-24.997"
             inkscape:connector-curvature="0"
             id="path120"
             style="fill:url(#linearGradient112);fill-opacity:1;fill-rule:nonzero;stroke:none" /></g></g><g
         id="g122"><g
           clip-path="url(#clipPath126)"
           id="g124"><path
             d="m 1742.31,1313.89 31.87,99.29 c -24.64,6.99 -50.47,11 -77.19,11.64 l 0,-103.52 c 15.62,-0.86 30.78,-3.35 45.32,-7.41"
             inkscape:connector-curvature="0"
             id="path130"
             style="fill:#40b93c;fill-opacity:1;fill-rule:nonzero;stroke:none" /><path
             d="m 1678.48,1321.53 0,103.21 c -17.22,-0.6 -34.06,-2.53 -50.43,-5.79 l 22.69,-100.17 c 9.06,1.51 18.31,2.43 27.74,2.75"
             inkscape:connector-curvature="0"
             id="path132"
             style="fill:#80cc28;fill-opacity:1;fill-rule:nonzero;stroke:none" /><path
             d="m 1590.92,1032.32 c 25.83,-25.38 60.25,-39.73 96.29,-39.73 36.47,0 70.87,14.35 96.28,39.73 7.39,7.37 13.55,14.75 18.44,22.97 l 36.09,0 c -27.08,-55.728 -84.43,-94.251 -150.81,-94.251 -65.96,0 -123.33,38.523 -150.79,94.251 l 36.06,0 c 5.32,-8.22 11.48,-15.6 18.44,-22.97"
             inkscape:connector-curvature="0"
             id="path134"
             style="fill:#bdbcbc;fill-opacity:1;fill-rule:nonzero;stroke:none" /></g></g></g></g></svg>