<svg width="30" height="30" xmlns="http://www.w3.org/2000/svg">
 <!-- Created with SVG-edit - http://svg-edit.googlecode.com/ -->
 <g>
  <title>Layer 1</title>
  <metadata id="svg_197">image/svg+xml</metadata>
  <defs>
   <clipPath id="svg_159">
    <path id="svg_196" d="m6796.527344,-162.157379l4512,0l0,1424.819977l-4512,0l0,-1424.819977z"/>
   </clipPath>
   <clipPath id="svg_154">
    <path id="svg_195" d="m593.112854,7328.949219l-31.950195,-99.550293c79.519531,-30.100098 136.169922,-106.75 136.169922,-196.839844c0,-73.689941 -37.919922,-138.457031 -95.240234,-176.093262l49.660156,-86.503906c89.669922,54.5 149.570313,153.117188 149.570313,265.696777c0,135.640137 -87,250.92041 -208.209961,293.290527z"/>
   </clipPath>
   <linearGradient spreadMethod="pad" id="svg_156" y2="-1.385504" x2="-6.547388" y1="-1.290561" x1="-6.544818">
    <stop stop-color="#40bb6a" offset="0" id="svg_194"/>
    <stop stop-color="#0094ce" offset="0.716589" id="svg_193"/>
    <stop stop-color="#0094ce" offset="1" id="svg_192"/>
   </linearGradient>
   <clipPath id="svg_149">
    <path id="svg_191" d="m276.072876,7032.559082c0,98.069824 67.099609,180.22998 157.830048,203.699707l-22.610321,99.830078c-133.149414,-35.060059 -231.379898,-156.27002 -231.379898,-300.430176c0,-28.609863 4.049805,-56.239746 11.310059,-82.569824l91.439957,28.100098c-4.150421,16.459961 -6.589844,33.620117 -6.589844,51.370117z"/>
   </clipPath>
   <linearGradient spreadMethod="pad" id="svg_151" y2="-2.374501" x2="-4.785067" y1="-2.374501" x1="-4.885067">
    <stop stop-color="#2f5ea0" offset="0" id="svg_190"/>
    <stop stop-color="#37ab9c" offset="0.716589" id="svg_189"/>
    <stop stop-color="#37ab9c" offset="1" id="svg_188"/>
   </linearGradient>
   <clipPath id="svg_144">
    <path id="svg_187" d="m486.712524,6821.934082c-92.080078,0 -170.169952,59.195801 -198.790039,141.515137l-91.219742,-28.030273c8.330078,-24.410156 19.459946,-47.53125 33.259766,-68.766113l-89.969727,-210.327637l222.85939,96.136719c38.980469,-17.621094 82.200195,-27.516113 127.740234,-27.516113c52.410095,0 101.740173,13.027832 145.030212,35.92627l-49.389648,86.059082c-29.640625,-15.914063 -63.520508,-24.99707 -99.520447,-24.99707z"/>
   </clipPath>
   <linearGradient spreadMethod="pad" id="svg_146" y2="-2.103841" x2="-2.330906" y1="-2.103841" x1="-2.430906">
    <stop stop-color="#3871c1" offset="0" id="svg_186"/>
    <stop stop-color="#00adef" offset="0.716589" id="svg_185"/>
    <stop stop-color="#00adef" offset="1" id="svg_184"/>
   </linearGradient>
   <clipPath id="svg_138">
    <path id="svg_183" d="m-1198.707397,5921.329102l0,1425l4512.000122,0l0,-1425l-4512.000122,0z"/>
   </clipPath>
  </defs>
  <g id="svg_199">
   <g id="svg_134" transform="matrix(0.419171 0 0 -0.419171 -4.91843 54.8665)">
    <g id="svg_135" transform="translate(0 -605.592) scale(0.1 0.1)">
     <g id="svg_157"/>
     <g id="svg_152">
      <g id="svg_153" clip-path="url(#svg_154)">
       <path fill="url(#svg_156)" fill-rule="nonzero" id="svg_155" d="m593.112854,7328.949219l-31.950195,-99.550293c79.519531,-30.100098 136.169922,-106.75 136.169922,-196.839844c0,-73.689941 -37.919922,-138.457031 -95.240234,-176.093262l49.660156,-86.503906c89.669922,54.5 149.570313,153.117188 149.570313,265.696777c0,135.640137 -87,250.92041 -208.209961,293.290527"/>
      </g>
     </g>
     <g id="svg_147">
      <g id="svg_148" clip-path="url(#svg_149)">
       <path fill="url(#svg_151)" fill-rule="nonzero" id="svg_150" d="m276.072876,7032.559082c0,98.069824 67.099609,180.22998 157.830048,203.699707l-22.610321,99.830078c-133.149414,-35.060059 -231.379898,-156.27002 -231.379898,-300.430176c0,-28.609863 4.049805,-56.239746 11.310059,-82.569824l91.439957,28.100098c-4.150421,16.459961 -6.589844,33.620117 -6.589844,51.370117"/>
      </g>
     </g>
     <g id="svg_142">
      <g id="svg_143" clip-path="url(#svg_144)">
       <path fill="url(#svg_146)" fill-rule="nonzero" id="svg_145" d="m486.712524,6821.934082c-92.080078,0 -170.169952,59.195801 -198.790039,141.515137l-91.219742,-28.030273c8.330078,-24.410156 19.459946,-47.53125 33.259766,-68.766113l-89.969727,-210.327637l222.85939,96.136719c38.980469,-17.621094 82.200195,-27.516113 127.740234,-27.516113c52.410095,0 101.740173,13.027832 145.030212,35.92627l-49.389648,86.059082c-29.640625,-15.914063 -63.520508,-24.99707 -99.520447,-24.99707"/>
      </g>
     </g>
     <g id="svg_136">
      <g id="svg_137" clip-path="url(#svg_138)">
       <path fill="#40b93c" fill-rule="nonzero" id="svg_141" d="m543.603088,7235.219238l31.869141,99.290039c-24.639648,6.989746 -50.469727,11 -77.189392,11.639648l0,-103.52002c15.620056,-0.859863 30.780212,-3.349609 45.320251,-7.409668"/>
       <path fill="#80cc28" fill-rule="nonzero" id="svg_140" d="m479.773071,7242.858887l0,103.209961c-17.220703,-0.599609 -34.060547,-2.529785 -50.430664,-5.789551l22.690399,-100.17041c9.059601,1.510254 18.309601,2.430176 27.740265,2.75"/>
       <path fill="#bdbcbc" fill-rule="nonzero" id="svg_139" d="m392.212524,6953.648926c25.830078,-25.379883 60.25,-39.72998 96.290009,-39.72998c36.469696,0 70.870087,14.350098 96.280243,39.72998c7.389648,7.370117 13.549805,14.75 18.439453,22.970215l36.089844,0c-27.079102,-55.728027 -84.429688,-94.251465 -150.80954,-94.251465c-65.959961,0 -123.330048,38.523438 -150.790009,94.251465l36.060547,0c5.319336,-8.220215 11.479462,-15.600098 18.439453,-22.970215"/>
      </g>
     </g>
    </g>
   </g>
  </g>
 </g>
</svg>